{"accessors":[{"bufferView":1,"componentType":5126,"count":1025,"max":[3.3816797733306885,3.9114983081817627,3.9592337608337402],"min":[-0.19793611764907837,-4.382847309112549,-5.385371208190918],"type":"VEC3"},{"bufferView":1,"byteOffset":12300,"componentType":5126,"count":1025,"max":[0.9983721971511841,0.9782481789588928,0.9999724626541138],"min":[-1,-0.9965224266052246,-0.9991913437843323],"type":"VEC3"},{"bufferView":2,"componentType":5126,"count":1025,"max":[0.9988870024681091,0.9107254147529602,1,1],"min":[-0.995705246925354,-0.6339572072029114,-1,-1],"type":"VEC4"},{"bufferView":0,"componentType":5125,"count":1086,"max":[1024],"min":[0],"type":"SCALAR"},{"bufferView":1,"byteOffset":24600,"componentType":5126,"count":1035,"max":[1.3670134544372559,3.9114983081817627,3.9592337608337402],"min":[-2.212602376937866,-4.382847309112549,-5.385371208190918],"type":"VEC3"},{"bufferView":1,"byteOffset":37020,"componentType":5126,"count":1035,"max":[1,0.9782482385635376,0.9999724626541138],"min":[-0.9983721375465393,-0.9965224862098694,-0.9991913437843323],"type":"VEC3"},{"bufferView":2,"byteOffset":16400,"componentType":5126,"count":1035,"max":[0.995705246925354,0.9107252359390259,1,1],"min":[-0.9988870024681091,-0.6339570879936218,-1,-1],"type":"VEC4"},{"bufferView":0,"byteOffset":4344,"componentType":5125,"count":1086,"max":[1034],"min":[0],"type":"SCALAR"},{"bufferView":3,"componentType":5126,"count":599,"max":[19.95833396911621],"min":[0.0416666679084301],"type":"SCALAR"},{"bufferView":4,"componentType":5126,"count":599,"max":[8.360552017345376e-17,1,8.360552017345376e-17,1],"min":[-8.659558618193084e-17,-0.8642674684524536,-8.659558618193084e-17,-0.498481422662735],"type":"VEC4"}],"animations":[{"channels":[{"sampler":0,"target":{"node":5,"path":"rotation"}}],"name":"Take 001","samplers":[{"input":8,"interpolation":"LINEAR","output":9}]}],"asset":{"extras":{"author":"jennyseong (https://sketchfab.com/jennyseong)","license":"CC-BY-4.0 (http://creativecommons.org/licenses/by/4.0/)","source":"https://sketchfab.com/models/a1dc3a8349a449c2b037ee703bedb246","title":"Some Kind of Brain Thing"},"generator":"Sketchfab-3.18.5","version":"2.0"},"bufferViews":[{"buffer":0,"byteLength":8688,"byteOffset":0,"name":"floatBufferViews","target":34963},{"buffer":0,"byteLength":49440,"byteOffset":8688,"byteStride":12,"name":"floatBufferViews","target":34962},{"buffer":0,"byteLength":32960,"byteOffset":58128,"byteStride":16,"name":"floatBufferViews","target":34962},{"buffer":0,"byteLength":2396,"byteOffset":91088,"name":"floatBufferViews"},{"buffer":0,"byteLength":9584,"byteOffset":93484,"byteStride":16,"name":"floatBufferViews"}],"buffers":[{"byteLength":103068,"uri":"data:application/octet-stream;base64,"}],"materials":[{"doubleSided":true,"emissiveFactor":[0,0,0],"name":"lambert1","pbrMetallicRoughness":{"baseColorFactor":[0.5,0.5,0.5,1],"metallicFactor":0,"roughnessFactor":0.4516562705}}],"meshes":[{"name":"brain_lambert1_0","primitives":[{"attributes":{"NORMAL":1,"POSITION":0,"TANGENT":2},"indices":3,"material":0,"mode":4}]},{"name":"brain1_lambert1_0","primitives":[{"attributes":{"NORMAL":5,"POSITION":4,"TANGENT":6},"indices":7,"material":0,"mode":4}]}],"nodes":[{"children":[1],"name":"RootNode (gltf orientation matrix)","rotation":[-0.7071067811865475,0,0,0.7071067811865476]},{"children":[2],"name":"RootNode (model correction matrix)"},{"children":[3],"matrix":[1,0,0,0,0,0,1,0,0,-1,0,0,0,0,0,1],"name":"de650900b09d44cbb574ecb2ffcb21c1.fbx"},{"children":[4],"name":""},{"children":[5],"name":"RootNode"},{"children":[6,8],"name":"brain","rotation":[0,-0.1894468069076538,0,0.9818909764289856]},{"children":[7],"name":"brain","rotation":[0,-2.7755575615628914e-17,0,1]},{"mesh":0,"name":"brain_lambert1_0"},{"children":[9],"name":"brain1","rotation":[0,-2.7755575615628914e-17,0,1],"translation":[-1.192733883857727,0,-5.551115123125783e-17]},{"mesh":1,"name":"brain1_lambert1_0"}],"scene":0,"scenes":[{"name":"OSG_Scene","nodes":[0]}]}